<?xml version="1.0" encoding="UTF-8" standalone="no"?>
<!DOCTYPE svg PUBLIC "-//W3C//DTD SVG 1.1//EN" "http://www.w3.org/Graphics/SVG/1.1/DTD/svg11.dtd">
<svg width="100%" height="100%" viewBox="0 0 2500 640" version="1.1" xmlns="http://www.w3.org/2000/svg" xmlns:xlink="http://www.w3.org/1999/xlink" xml:space="preserve" xmlns:serif="http://www.serif.com/" style="fill-rule:evenodd;clip-rule:evenodd;stroke-linejoin:round;stroke-miterlimit:2;">
    <g id="Artboard1" transform="matrix(1,0,0,1,0,-926.363)">
        <rect x="0" y="926.363" width="2500" height="639.669" style="fill:none;"/>
        <g transform="matrix(1,0,0,1,0,0.362858)">
            <path d="M811.933,1154.1C817.497,1153.17 826.057,1152.09 841.919,1152.09C871.711,1152.09 889.389,1161.49 889.389,1182.18C889.389,1201.73 871.659,1214.44 834.643,1214.44L811.933,1214.44L811.933,1154.1ZM748.498,1378.22C762.713,1380.24 786.798,1382.42 820.467,1382.42C877.353,1382.42 911.762,1374.06 932.941,1358.51C951.138,1345.18 963.965,1325.29 963.965,1299.61C963.965,1263.18 938.868,1240.49 908.065,1232.52L908.065,1231.66C939.763,1220.55 954.328,1198.12 954.328,1174.42C954.328,1147.73 938.492,1129.06 918.039,1119.71C897.702,1109.62 875.446,1105.78 833.969,1105.78C800.637,1105.78 764.542,1108.68 748.498,1111.78L748.498,1378.22ZM811.933,1259.77L836.096,1259.77C869.882,1259.77 896.237,1269.52 896.237,1296.63C896.237,1325.54 869.376,1335.46 839.468,1335.46C827.082,1335.46 818.652,1335.46 811.946,1334.42L811.946,1259.77L811.933,1259.77ZM2323.59,1379.39L2302.28,1344.43C2294.7,1331.97 2286.95,1318.17 2282.98,1310.15C2279.33,1318.16 2270.86,1332.45 2263.68,1344.43L2242.47,1379.39L2176.3,1379.39L2251.25,1265.16L2187.68,1168.15L2253.59,1168.15L2263.66,1185.38C2270.5,1196.55 2276.94,1207.96 2282.96,1219.59C2286.95,1211.67 2295.1,1197.86 2302.26,1185.38L2312.47,1168.15L2378.25,1168.15L2314.77,1265.16L2389.67,1379.39L2323.59,1379.39ZM1117.33,1317.34C1111.24,1327.49 1096.8,1336.72 1078.67,1336.72C1054.93,1336.72 1046.52,1323.42 1046.52,1308.57C1046.52,1291.62 1057.92,1282.1 1079.59,1282.1C1101.06,1282.1 1114.19,1289.35 1117.33,1290.76L1117.33,1317.34ZM1172.96,1379.4L1172.96,1237.72C1172.96,1190.31 1139.19,1163.57 1083.73,1163.57C1042.37,1163.57 1015.16,1180.62 1007.87,1185.12L1029.22,1223.59C1033.79,1221.15 1053.96,1208.92 1082.37,1208.92C1107.28,1208.92 1117.35,1221.08 1117.35,1235.79L1117.35,1247.1C1112.42,1244.9 1099.16,1238.51 1074.3,1238.51C1029.99,1238.51 990.981,1261.96 990.981,1308.6C990.981,1359.67 1029.99,1383.84 1067.72,1383.84C1097.51,1383.84 1112.97,1369.01 1117.36,1365.34L1117.36,1379.4L1172.96,1379.4ZM1557.81,1317.34C1551.88,1327.49 1537.4,1336.72 1519.2,1336.72C1495.49,1336.72 1487.05,1323.42 1487.05,1308.57C1487.05,1291.62 1498.5,1282.1 1520.16,1282.1C1541.53,1282.1 1554.82,1289.35 1557.8,1290.76L1557.8,1317.34L1557.81,1317.34ZM1613.39,1379.4L1613.39,1237.72C1613.39,1190.31 1579.8,1163.57 1524.25,1163.57C1482.86,1163.57 1455.67,1180.62 1448.45,1185.12L1469.83,1223.59C1474.34,1221.15 1494.41,1208.92 1522.82,1208.92C1547.9,1208.92 1557.8,1221.08 1557.8,1235.79L1557.8,1247.1C1552.96,1244.9 1539.78,1238.51 1514.82,1238.51C1470.46,1238.51 1431.47,1261.96 1431.47,1308.6C1431.47,1359.67 1470.46,1383.84 1508.2,1383.84C1538.12,1383.84 1553.6,1369.01 1557.8,1365.34L1557.8,1379.4L1613.39,1379.4ZM1344.17,1379.39L1344.17,1259.14C1344.17,1225.25 1326.5,1216.02 1308.3,1216.02C1291.02,1216.02 1272.08,1226.15 1272.08,1257.87L1272.08,1379.39L1216.67,1379.39L1216.67,1168.15L1272.08,1168.15L1272.08,1182.15C1276.54,1178.12 1292.33,1163.56 1323.19,1163.56C1367.29,1163.56 1399.68,1187.14 1399.68,1245.31L1399.68,1379.37L1344.17,1379.37L1344.17,1379.39ZM1904.25,1379.39L1904.25,1261.46C1904.25,1227.85 1891.94,1216.02 1870.47,1216.02C1852.16,1216.02 1836.17,1227.24 1836.17,1260.38L1836.17,1379.39L1780.64,1379.39L1780.64,1261.46C1780.64,1228.52 1768.05,1216.02 1746.81,1216.02C1727.2,1216.02 1712.58,1227.39 1712.58,1260.38L1712.58,1379.39L1657.25,1379.39L1657.25,1168.15L1712.58,1168.15L1712.58,1182.15C1716.63,1178.73 1733.76,1163.56 1763.14,1163.56C1798.45,1163.56 1813.9,1186.51 1817.32,1190.62C1820.84,1187.53 1843.64,1163.56 1882.83,1163.56C1927.37,1163.56 1959.77,1190.16 1959.77,1246.67L1959.77,1379.37L1904.25,1379.37L1904.25,1379.39ZM2120.71,1249.93L2048.18,1249.93C2049.17,1232.96 2059.33,1212.08 2084.12,1212.08C2109,1212.08 2119.12,1231.01 2120.71,1249.93ZM2175.91,1273.95C2175.91,1208.91 2142.1,1163.57 2085.73,1163.57C2032.18,1163.57 1991.55,1209.12 1991.55,1273.95C1991.55,1340.78 2030.18,1383.82 2091,1383.82C2119.12,1383.82 2149.76,1371.44 2166.59,1349.6L2133.5,1318.42C2130.63,1321.4 2117.37,1336.73 2091.4,1336.73C2068.6,1336.73 2049.55,1320.62 2047.5,1291.63L2175.04,1291.63C2175.5,1287.55 2175.91,1282.11 2175.91,1273.95Z" style="fill:rgb(51,52,142);"/>
            <path d="M284.894,1344.1C275.971,1349.26 263.338,1355.34 248.838,1361.05C264.713,1376.35 301.962,1406.7 357.576,1406.7C369.872,1406.7 374.23,1400.32 374.23,1393.46C374.23,1384.11 365.034,1379.13 350.767,1374.74C332.519,1369.14 301.495,1361.7 301.495,1337.96C301.495,1335.55 301.871,1333.33 302.598,1331.29C297.436,1336.9 291.042,1340.48 284.894,1344.1ZM454.175,1115.09C447.301,1115.09 441.984,1121.18 441.984,1127.58C441.984,1133.77 445.991,1140.87 452.282,1149.37C461.14,1160.83 475.212,1177.89 475.212,1193.75C475.212,1203.62 469.324,1210.33 465.64,1212.75C468.779,1212.08 471.905,1212.05 474.979,1212.05C486.262,1212.05 506.171,1214.96 526.702,1220.17C522.733,1198.7 510.516,1152.08 465.64,1119.47C461.283,1116.16 457.431,1115.09 454.175,1115.09ZM434.007,1352.18C436.16,1362.2 437.898,1376.01 439.001,1391.62C452.515,1384.2 476.224,1369.19 495.601,1342.83C509.517,1322.28 517.286,1302.93 517.286,1294.62C517.286,1285.27 509.569,1281.59 504.498,1281.59C497.442,1281.59 490.763,1288.45 483.409,1299C472.502,1314.47 455.68,1341.63 433.255,1334.41C431.046,1333.7 428.966,1332.64 427.094,1331.27C430.933,1337.81 432.386,1345.11 434.007,1352.18ZM425.771,1263.76C434.889,1235.38 445.447,1222.25 456.199,1216.29C442.399,1217.98 422.879,1209.09 400.999,1193.14C376.927,1175.74 367.641,1161.61 365.332,1149.63C362.712,1163.32 348.134,1179.16 326.371,1195.02C302.273,1212.43 285.957,1216.98 273.87,1215.38C286.139,1222.06 296.58,1240.91 304.88,1266.56C309.874,1281.58 312.04,1293.69 312.04,1303.06C312.04,1311.35 310.587,1317.75 308.162,1322.7C318.408,1313.27 339.406,1308.93 366.318,1308.93C396.174,1308.93 411.946,1314.97 420.908,1323.34C418.625,1318.61 417.665,1312.48 417.665,1305.56C417.678,1294.21 420.545,1279.75 425.771,1263.76ZM441.063,1452.94C441.063,1497.57 391.544,1500.89 363.257,1500.89C336.682,1500.89 303.843,1495.79 278.435,1484.01C247.969,1470.11 238.747,1456.25 238.747,1420.07C238.747,1401.28 240.018,1377.79 240.952,1364.29C224.567,1370.77 207.955,1376.65 191.148,1381.94C148.737,1395.95 130.203,1349.7 121.488,1322.86C114.174,1300.34 110.398,1276.81 110.295,1253.13C110.295,1206.5 124.886,1190.83 159.904,1179.41C177.764,1173.66 200.409,1167.68 213.573,1164.27C202.323,1150.7 191.564,1136.74 181.317,1122.4C175.105,1113.93 172.433,1105.49 172.433,1097.58C172.433,1071.87 198.658,1050.53 215.973,1037.89C237.541,1022.36 279.2,999.087 315.282,999.087C335.217,999.087 348.057,1007.84 364.373,1030.1C375.397,1045.18 388.133,1065.17 395.318,1076.45C404.804,1061.61 414.748,1047.06 425.136,1032.83C434.682,1019.83 446.38,1014.87 458.261,1014.87C479.674,1014.87 501.761,1029.46 516.287,1039.76C537.791,1055.48 561.422,1078.9 575.066,1103.47C582.667,1116.81 586.609,1127.57 586.558,1138.2C586.532,1150.61 581.045,1162.71 569.528,1178.46C558.569,1193.66 543.68,1211.79 535.003,1222.23C551.371,1226.43 568.88,1231.6 585.715,1237.03C608.969,1244.66 615.882,1262.63 615.882,1281.58C615.882,1318.89 591.279,1373.13 565.08,1401.58C550.113,1417.58 538.129,1425.11 521.8,1425.11C513.265,1425.11 503.642,1423.33 491.917,1419.38C474.019,1413.7 452.178,1405.22 439.636,1400.19C440.713,1417.03 441.063,1435.18 441.063,1452.94ZM366.85,1082.06C341.844,1082.06 308.434,1087.66 276.061,1110.8C269.849,1115.32 267.683,1120.02 267.683,1123.84C267.683,1127.63 270.783,1136.7 281.755,1136.7C297.241,1136.7 318.019,1123.12 339.367,1123.12C359.327,1123.12 364.256,1137.45 364.93,1139.65C365.683,1130.37 373.841,1110.5 390.805,1083.81C382.877,1082.61 374.868,1082.02 366.85,1082.06ZM219.046,1170.94C209.591,1190.78 192.134,1235.49 209.306,1288.37C213.132,1300.09 220.473,1302.32 227.101,1300.09C235.972,1297.17 237.891,1286.96 237.606,1272.1C237.23,1252.85 234.96,1221.12 257.242,1213.87C259.59,1213 261.937,1212.58 264.155,1212.7C253.663,1208.3 238.319,1193.24 219.046,1170.94Z" style="fill:rgb(204,34,41);"/>
        </g>
    </g>
</svg>
